{"scene":0,"asset":{"generator":"ImageToStl.com","version":"2.0"},"scenes":[{"name":"Scene","nodes":[0]}],"nodes":[{"name":"Node0","children":[1,2,3]},{"name":"Camera"},{"name":"Lamp"},{"name":"MF0609_4_0","children":[4]},{"name":"Node4","mesh":0}],"materials":[{"name":"Material_004-effect","pbrMetallicRoughness":{"baseColorFactor":[0.5,0.5,0.5,1.0],"metallicFactor":0.5,"roughnessFactor":0.609375},"emissiveFactor":[0.0,0.0,0.0],"doubleSided":true}],"meshes":[{"name":"Mesh0","primitives":[{"indices":2,"material":0,"attributes":{"POSITION":0,"NORMAL":1}}]}],"accessors":[{"bufferView":0,"componentType":5126,"count":6300,"type":"VEC3","min":[-50.259064,-49.34467,-283.34647],"max":[50.270638,196.00803,-70.083]},{"bufferView":1,"componentType":5126,"count":6300,"type":"VEC3"},{"bufferView":2,"componentType":5123,"count":6372,"type":"SCALAR"}],"bufferViews":[{"target":34962,"buffer":0,"byteLength":75600,"byteOffset":0},{"target":34962,"buffer":0,"byteLength":75600,"byteOffset":75600},{"target":34963,"buffer":0,"byteLength":12744,"byteOffset":151200}],"buffers":[{"byteLength":163944,"uri":"data:application/octet-stream;base64,"}]}