{"scene":0,"asset":{"generator":"ImageToStl.com","version":"2.0"},"scenes":[{"name":"Scene","nodes":[0]}],"nodes":[{"name":"Node0","children":[1,2,3]},{"name":"Camera"},{"name":"Lamp"},{"name":"MF0609_0_0","children":[4]},{"name":"Node4","mesh":0}],"materials":[{"name":"Material_001-effect","pbrMetallicRoughness":{"baseColorFactor":[0.4,0.4,0.4,1.0],"metallicFactor":0.5,"roughnessFactor":0.0625},"emissiveFactor":[0.0,0.0,0.0],"doubleSided":true}],"meshes":[{"name":"Mesh0","primitives":[{"indices":2,"material":0,"attributes":{"POSITION":0,"NORMAL":1}}]}],"accessors":[{"bufferView":0,"componentType":5126,"count":29984,"type":"VEC3","min":[-115.246414,-339.74802,-45.24551],"max":[91.196365,91.19089,52.0004]},{"bufferView":1,"componentType":5126,"count":29984,"type":"VEC3"},{"bufferView":2,"componentType":5123,"count":32214,"type":"SCALAR"}],"bufferViews":[{"target":34962,"buffer":0,"byteLength":359808,"byteOffset":0},{"target":34962,"buffer":0,"byteLength":359808,"byteOffset":359808},{"target":34963,"buffer":0,"byteLength":64428,"byteOffset":719616}],"buffers":[{"byteLength":784044,"uri":"data:application/octet-stream;base64,"}]}