{"scene":0,"asset":{"generator":"ImageToStl.com","version":"2.0"},"scenes":[{"name":"Scene","nodes":[0]}],"nodes":[{"name":"Node0","children":[1,2,3]},{"name":"Camera"},{"name":"Lamp"},{"name":"MF0609_6_0","children":[4]},{"name":"Node4","mesh":0}],"materials":[{"name":"Material_007-effect","pbrMetallicRoughness":{"baseColorFactor":[0.65,0.65,0.65,1.0],"metallicFactor":0.5,"roughnessFactor":0.0625},"emissiveFactor":[0.0,0.0,0.0],"doubleSided":true}],"meshes":[{"name":"Mesh0","primitives":[{"indices":2,"material":0,"attributes":{"POSITION":0,"NORMAL":1}}]}],"accessors":[{"bufferView":0,"componentType":5126,"count":7560,"type":"VEC3","min":[-44.554348,-44.86545,-57.71473],"max":[44.565792,45.538616,0.13183]},{"bufferView":1,"componentType":5126,"count":7560,"type":"VEC3"},{"bufferView":2,"componentType":5123,"count":7668,"type":"SCALAR"}],"bufferViews":[{"target":34962,"buffer":0,"byteLength":90720,"byteOffset":0},{"target":34962,"buffer":0,"byteLength":90720,"byteOffset":90720},{"target":34963,"buffer":0,"byteLength":15336,"byteOffset":181440}],"buffers":[{"byteLength":196776,"uri":"data:application/octet-stream;base64,"}]}