{"scene":0,"asset":{"generator":"ImageToStl.com","version":"2.0"},"scenes":[{"name":"Scene","nodes":[0]}],"nodes":[{"name":"Node0","children":[1,2,3,5,6,7]},{"name":"Camera"},{"name":"Lamp"},{"name":"Doosan_Mark","children":[4]},{"name":"Node4","mesh":0},{"name":"Camera_001"},{"name":"Lamp_001"},{"name":"MF0609_2_1","children":[8]},{"name":"Node8","mesh":1}],"materials":[{"name":"Material_001-effect","pbrMetallicRoughness":{"baseColorFactor":[0.8,0.8,0.8,1.0],"metallicFactor":0.5,"roughnessFactor":0.609375},"emissiveFactor":[0.0,0.0,0.0],"doubleSided":true},{"name":"Material_008-effect","pbrMetallicRoughness":{"baseColorFactor":[0.65,0.65,0.65,1.0],"metallicFactor":0.5,"roughnessFactor":0.0625},"emissiveFactor":[0.0,0.0,0.0],"doubleSided":true}],"meshes":[{"name":"Mesh0","primitives":[{"indices":2,"material":0,"attributes":{"POSITION":0,"NORMAL":1}}]},{"name":"Mesh0","primitives":[{"indices":5,"material":1,"attributes":{"POSITION":3,"NORMAL":4}}]}],"accessors":[{"bufferView":0,"componentType":5126,"count":34554,"type":"VEC3","min":[150.91527,-10.260672,204.5622],"max":[265.72415,5.0954266,209.16464]},{"bufferView":1,"componentType":5126,"count":34554,"type":"VEC3"},{"bufferView":2,"componentType":5123,"count":39420,"type":"SCALAR"},{"bufferView":3,"componentType":5126,"count":38799,"type":"VEC3","min":[86.453186,-52.559017,109.18936],"max":[333.05322,47.413166,209.17548]},{"bufferView":4,"componentType":5126,"count":38799,"type":"VEC3"},{"bufferView":5,"componentType":5123,"count":42978,"type":"SCALAR"}],"bufferViews":[{"target":34962,"buffer":0,"byteLength":414648,"byteOffset":0},{"target":34962,"buffer":0,"byteLength":414648,"byteOffset":414648},{"target":34963,"buffer":0,"byteLength":78840,"byteOffset":829296},{"target":34962,"buffer":0,"byteLength":465588,"byteOffset":908136},{"target":34962,"buffer":0,"byteLength":465588,"byteOffset":1373724},{"target":34963,"buffer":0,"byteLength":85956,"byteOffset":1839312}],"buffers":[{"byteLength":1925268,"uri":"data:application/octet-stream;base64,"}]}