{"scene":0,"asset":{"generator":"ImageToStl.com","version":"2.0"},"scenes":[{"name":"Scene","nodes":[0]}],"nodes":[{"name":"Node0","children":[1,2,3]},{"name":"Camera"},{"name":"Lamp"},{"name":"MF0609_4_1","children":[4]},{"name":"Node4","mesh":0}],"materials":[{"name":"Material_005-effect","pbrMetallicRoughness":{"baseColorFactor":[0.5,0.5,0.5,1.0],"metallicFactor":0.5,"roughnessFactor":0.609375},"emissiveFactor":[0.0,0.0,0.0],"doubleSided":true}],"meshes":[{"name":"Mesh0","primitives":[{"indices":2,"material":0,"attributes":{"POSITION":0,"NORMAL":1}}]}],"accessors":[{"bufferView":0,"componentType":5126,"count":7771,"type":"VEC3","min":[-54.013252,79.92172,-70.08301],"max":[54.02475,242.92532,53.76288]},{"bufferView":1,"componentType":5126,"count":7771,"type":"VEC3"},{"bufferView":2,"componentType":5123,"count":7824,"type":"SCALAR"}],"bufferViews":[{"target":34962,"buffer":0,"byteLength":93252,"byteOffset":0},{"target":34962,"buffer":0,"byteLength":93252,"byteOffset":93252},{"target":34963,"buffer":0,"byteLength":15648,"byteOffset":186504}],"buffers":[{"byteLength":202152,"uri":"data:application/octet-stream;base64,"}]}