{"scene":0,"asset":{"generator":"ImageToStl.com","version":"2.0"},"scenes":[{"name":"Scene","nodes":[0]}],"nodes":[{"name":"Node0","children":[1,2,3]},{"name":"Camera"},{"name":"Lamp"},{"name":"MF0609_3_0","children":[4]},{"name":"Node4","mesh":0}],"materials":[{"name":"Material_003-effect","pbrMetallicRoughness":{"baseColorFactor":[0.8,0.8,0.8,1.0],"metallicFactor":0.5,"roughnessFactor":0.609375},"emissiveFactor":[0.0,0.0,0.0],"doubleSided":true}],"meshes":[{"name":"Mesh0","primitives":[{"indices":2,"material":0,"attributes":{"POSITION":0,"NORMAL":1}}]}],"accessors":[{"bufferView":0,"componentType":5126,"count":8186,"type":"VEC3","min":[-65.30061,-84.17414,-53.548798],"max":[65.22675,96.25656,80.91775]},{"bufferView":1,"componentType":5126,"count":8186,"type":"VEC3"},{"bufferView":2,"componentType":5123,"count":8208,"type":"SCALAR"}],"bufferViews":[{"target":34962,"buffer":0,"byteLength":98232,"byteOffset":0},{"target":34962,"buffer":0,"byteLength":98232,"byteOffset":98232},{"target":34963,"buffer":0,"byteLength":16416,"byteOffset":196464}],"buffers":[{"byteLength":212880,"uri":"data:application/octet-stream;base64,"}]}