{"scene":0,"asset":{"generator":"ImageToStl.com","version":"2.0"},"scenes":[{"name":"Scene","nodes":[0]}],"nodes":[{"name":"Node0","children":[1,2,3]},{"name":"Camera"},{"name":"Lamp"},{"name":"MF0609_5_0","children":[4]},{"name":"Node4","mesh":0}],"materials":[{"name":"Material_006-effect","pbrMetallicRoughness":{"baseColorFactor":[0.8,0.8,0.8,1.0],"metallicFactor":0.5,"roughnessFactor":0.609375},"emissiveFactor":[0.0,0.0,0.0],"doubleSided":true}],"meshes":[{"name":"Mesh0","primitives":[{"indices":2,"material":0,"attributes":{"POSITION":0,"NORMAL":1}}]}],"accessors":[{"bufferView":0,"componentType":5126,"count":8140,"type":"VEC3","min":[-53.099583,-62.17151,-53.182205],"max":[53.11104,111.04388,78.932526]},{"bufferView":1,"componentType":5126,"count":8140,"type":"VEC3"},{"bufferView":2,"componentType":5123,"count":8160,"type":"SCALAR"}],"bufferViews":[{"target":34962,"buffer":0,"byteLength":97680,"byteOffset":0},{"target":34962,"buffer":0,"byteLength":97680,"byteOffset":97680},{"target":34963,"buffer":0,"byteLength":16320,"byteOffset":195360}],"buffers":[{"byteLength":211680,"uri":"data:application/octet-stream;base64,"}]}