{"scene":0,"asset":{"generator":"ImageToStl.com","version":"2.0"},"scenes":[{"name":"Scene","nodes":[0]}],"nodes":[{"name":"Node0","children":[1,2,3]},{"name":"Camera"},{"name":"Lamp"},{"name":"MF0609_2_0","children":[4]},{"name":"Node4","mesh":0}],"materials":[{"name":"Material_001-effect","pbrMetallicRoughness":{"baseColorFactor":[0.5,0.5,0.5,1.0],"metallicFactor":0.5,"roughnessFactor":0.609375},"emissiveFactor":[0.0,0.0,0.0],"doubleSided":true}],"meshes":[{"name":"Mesh0","primitives":[{"indices":2,"material":0,"attributes":{"POSITION":0,"NORMAL":1}}]}],"accessors":[{"bufferView":0,"componentType":5126,"count":8726,"type":"VEC3","min":[-68.35926,-69.22977,81.9163],"max":[107.83196,69.22976,274.2387]},{"bufferView":1,"componentType":5126,"count":8726,"type":"VEC3"},{"bufferView":2,"componentType":5123,"count":8736,"type":"SCALAR"}],"bufferViews":[{"target":34962,"buffer":0,"byteLength":104712,"byteOffset":0},{"target":34962,"buffer":0,"byteLength":104712,"byteOffset":104712},{"target":34963,"buffer":0,"byteLength":17472,"byteOffset":209424}],"buffers":[{"byteLength":226896,"uri":"data:application/octet-stream;base64,"}]}