{"scene":0,"asset":{"generator":"ImageToStl.com","version":"2.0"},"scenes":[{"name":"Scene","nodes":[0]}],"nodes":[{"name":"Node0","children":[1,2,3]},{"name":"Camera"},{"name":"Lamp"},{"name":"MF0609_1_0","children":[4]},{"name":"Node4","mesh":0}],"materials":[{"name":"Material_001-effect","pbrMetallicRoughness":{"baseColorFactor":[0.95,0.95,0.95,1.0],"metallicFactor":0.5,"roughnessFactor":0.21875},"emissiveFactor":[0.0,0.0,0.0],"doubleSided":true}],"meshes":[{"name":"Mesh0","primitives":[{"indices":2,"material":0,"attributes":{"POSITION":0,"NORMAL":1}}]}],"accessors":[{"bufferView":0,"componentType":5126,"count":7820,"type":"VEC3","min":[-70.04802,-68.05687,-81.89387],"max":[70.04802,87.14402,110.45472]},{"bufferView":1,"componentType":5126,"count":7820,"type":"VEC3"},{"bufferView":2,"componentType":5123,"count":7824,"type":"SCALAR"}],"bufferViews":[{"target":34962,"buffer":0,"byteLength":93840,"byteOffset":0},{"target":34962,"buffer":0,"byteLength":93840,"byteOffset":93840},{"target":34963,"buffer":0,"byteLength":15648,"byteOffset":187680}],"buffers":[{"byteLength":203328,"uri":"data:application/octet-stream;base64,"}]}