{"scene":0,"asset":{"generator":"ImageToStl.com","version":"2.0"},"scenes":[{"name":"Scene","nodes":[0]}],"nodes":[{"name":"Node0","children":[1,2,3]},{"name":"Camera"},{"name":"Lamp"},{"name":"MF0609_2_2","children":[4]},{"name":"Node4","mesh":0}],"materials":[{"name":"Material_002-effect","pbrMetallicRoughness":{"baseColorFactor":[0.5,0.5,0.5,1.0],"metallicFactor":0.5,"roughnessFactor":0.609375},"emissiveFactor":[0.0,0.0,0.0],"doubleSided":true}],"meshes":[{"name":"Mesh0","primitives":[{"indices":2,"material":0,"attributes":{"POSITION":0,"NORMAL":1}}]}],"accessors":[{"bufferView":0,"componentType":5126,"count":8707,"type":"VEC3","min":[304.22964,-69.158264,81.95395],"max":[478.7937,69.15816,273.3268]},{"bufferView":1,"componentType":5126,"count":8707,"type":"VEC3"},{"bufferView":2,"componentType":5123,"count":8736,"type":"SCALAR"}],"bufferViews":[{"target":34962,"buffer":0,"byteLength":104484,"byteOffset":0},{"target":34962,"buffer":0,"byteLength":104484,"byteOffset":104484},{"target":34963,"buffer":0,"byteLength":17472,"byteOffset":208968}],"buffers":[{"byteLength":226440,"uri":"data:application/octet-stream;base64,"}]}